<svg xmlns="http://www.w3.org/2000/svg" viewBox="0 0 36 24" height="24" width="36"><path fill="#fff" d="M0 0h36v24H0z"/><path fill="#005faf" stroke="#005faf" stroke-width=".01" d="M19 11.8c1.5-.7 1.7-2.9-.4-2.9h-2.5l-.9 1.8h.4L14.5 15h2.9c2.1 0 3.1-2.4 1.6-3.2h0zm-1.6 1.7h-.7l.3-1h.7c.8.1.3 1-.3 1zm.5-2.1h-.6l.2-.9h.7c.6.2 0 .9-.3.9h0zm7.1-.2l.9-1.7-1.3-.7-.2.2c-.7-.4-4.3.1-4.5 3.7.1 3 3.5 2.5 3.8 2.3l.9-1.9c-.9.6-2.8.9-2.8-.9.2-1.5 1.9-2 3.2-1h0zm4.7-2.3h-2.9l-.9 1.8h.5L24.1 15h2.1l.4-1.1H28V15h2l-.3-6.1zm-2.4 3.6l.7-1.7v1.7h-.7 0z"/><path fill="#005faf" d="M11.5 14.7h.1l-.1-.2v.2zm-1.9 0v.2c.1 0 .1 0 .2-.1-.1-.1-.1-.1-.2-.1zm.9 0s0-.1-.1 0v.2c.1-.1.1-.1.1-.2zm-2-.1v.1h.2c-.1-.1-.1-.1-.2-.1zm1.9.3v.2c.1 0 .1 0 .1-.1.1-.1 0-.1-.1-.1zM12.8 9c-1.9-1-4.2-1-6.1 0-1 1.7-1 4 0 6.1 2 1 4.3 1 6.1 0 .9-1.8 1-3.9 0-6.1zm-3.3 5h-.1c0-.3-.1-.6-.3-.8-.7-.9-2.3-.2-1.9-1.8.3-.9 2.6-1.3 2.3 2.6zm-2.2-1.6c.2.3 1.2.4 1.5.6.6.4.5 1 .5 1h-.1c-.3-.8-1-.2-1.6-.4-.4-.1-.6-.7-.3-1.2zM9.2 15l.1-.4h.1v.5c0 .2-.4.2-.4 0l.1-.5h.1L9 15c0 .1.1.1.2 0zm-.6.1h-.1c0-.1.1-.3-.1-.3l-.1.2h-.1l.1-.6c.3 0 .4.1.4.2s0 .1-.1.1c.1.2 0 .3 0 .4zm-.7-.6s-.1.2-.1.3c0 .1.1.1.1.1v-.1h-.1v-.1l.2.1v.2c-.1 0-.3 0-.3-.1 0-.2 0-.4.2-.4 0-.2.2-.1.2 0v.1H8v-.1c.1 0-.1-.1-.1 0zm1.7.5v.3h-.1v-.6c.2 0 .4 0 .4.2-.1.1-.2.1-.3.1zm.2-1h-.1c0-.5.1-1.5-.2-2.3-.2-.6-.8-.8-.9-1.2-.2-.7.1-1.5 1.2-1.6.9.1 1.2.8 1.1 1.5-.3.7-.6.6-.9 1.3-.3.7-.2 1.7-.2 2.3zm1.7 1h-.1v-.6h.1l.3.5-.1.1-.1-.1h-.1v.1zm-1.2-1h-.1c.1-1.4 1.8-1.1 2-1.6.3.5.2.9-.1 1.1-.8.5-1.5-.4-1.8.5zm.6.7l.1.3c0 .1.1.1.1 0 .1 0 0-.1 0-.1h.1c0 .2-.1.2-.1.2-.2 0-.2 0-.2-.2s-.1-.4.1-.4.2.1.3.1h-.1c0-.1 0-.1-.1-.1-.2.1-.2.1-.2.2zm-.2.3c0 .1 0 .2-.1.2l-.2.1-.1-.6c.1 0 .3-.1.4.1v.2c0-.1 0-.1 0 0zm-.6-3.1c.6-1.6 1.8-1.3 2.1-.6.4 1.4-.9 1-1.6 1.6-.3.3-.5.6-.5 1h-.2c0-.8 0-1.5.2-2z"/></svg>