<svg xmlns="http://www.w3.org/2000/svg" viewBox="0 0 36 24" height="24" width="36"><path fill="#fff" d="M0 0h36v24H0z"/><path fill="#f15a23" d="M6 11l2 2.6-2 1.7V11zm.8 4.1l1.5-1.3 1.1 1.3H6.8zM6 9.6l.5.7L8.7 13l.7-.6s-.6-.7-1-1.5c-.7-1.4-.2-2.4-.2-2.4H6v1.1zm3 3.7l.7-.6s.7.9 1.5 1.1c1 .3 1.5-.4 1.5-.4v1.7h-2.3l.5-.4s-.3.2-.9-.3c-.3-.3-1-1.1-1-1.1zm.1-4.8s-.2.3-.1 1.1c.2.8.9 1.7.9 1.7s0-.9.5-1.4c1.1-1.1 2.3-.4 2.3-.4v-1H9.1zm3.6 2.1s-.7-.6-1.3-.6c-.8 0-1.2.7-1.2 1.1 0 .7.3 1.1.7 1.4.5.5 1.1 1 1.8.6v-2.5z"/><path fill="#005e6a" d="M20.4 8.5H22s1.4 2.1 2.1 3 1.4 1.9 1.4 1.9V9c0-.2-.5-.5-.5-.5h2s-.6.2-.6.5v6.5s-.6-.3-1.2-1.1c-.7-.9-3.4-4.3-3.4-4.3v4.5c0 .2.5.6.5.6h-1.8s.5-.4.5-.6V9.1c-.1-.3-.6-.6-.6-.6zm7.6 0h2s-.5.3-.5.5v5.5c0 .2.5.6.5.6h-2s.5-.3.5-.6V9c0-.2-.5-.5-.5-.5zm-13.5 0s.5.3.5.5v5.5c0 .2-.5.6-.5.6h3c.2 0 2.3-.3 2.3-2s-1.7-1.8-1.7-1.8 1-.3 1-1.4c0-1.2-1.5-1.4-1.7-1.4h-2.9zm1.5 2.8V9.2h1.3c.2 0 .9.2.9 1.1 0 .7-.7 1-.9 1H16zm0 .5h1.5c.2 0 1.3.3 1.3 1.3s-1.1 1.4-1.3 1.4H16v-2.7z"/></svg>