<svg xmlns="http://www.w3.org/2000/svg" viewBox="0 0 160 32" height="32" width="160"><path d="M19.2 12.9l9.7 18.6H18.2l-5.4-11.2-3.6 4.3v6.9H0V.5h9.2v12.3L18.1.5h10.5l-9.4 12.4zm36.6 14.2c-1 1.6-2.4 2.8-4.3 3.6-1.8.8-4 1.3-6.4 1.3h-1.9c-2.4 0-4.6-.4-6.4-1.3-1.8-.8-3.3-2-4.3-3.6S31 23.7 31 21.6V.5h9.6v21.1c0 1 .4 1.8 1.1 2.4.7.6 1.6 1 2.6 1s1.9-.3 2.6-1c.7-.6 1.1-1.4 1.1-2.4V.5h9.5v21.2c-.2 2-.7 3.9-1.7 5.4zM81.9 1.4c1.3.6 2.4 1.6 3.2 2.7.8 1.2 1.2 2.5 1.2 4 0 1.1-.2 2.2-.7 3.2-.5 1.1-1.2 2-2 2.7-.8.8-1.8 1.2-2.8 1.4v.2c1.7.5 2.9 1.5 3.7 2.9.8 1.4 1.2 3.1 1.2 5.1 0 1.4.1 2.6.4 3.6.3 1 .9 1.7 1.9 1.9V31c-1.4.6-3.2.9-5.4.9-2.1 0-3.7-.4-4.8-1.3-1.1-.9-1.6-2.4-1.6-4.5 0-2-.2-3.6-.7-4.8-.5-1.2-1.6-1.8-3.3-1.8h-2.6v12h-9.3V.5h17.4c1.5 0 2.9.3 4.2.9zM69.6 12.6h4.8c.6 0 1.2-.2 1.6-.7.4-.4.7-1 .7-1.6v-.5c0-.6-.2-1.2-.7-1.6-.4-.4-1-.7-1.6-.7h-4.8v5.1zm42-10.2c2.4 1.6 3.6 4 3.6 7.1v.5h-8.7v-.1c0-.9-.3-1.6-.9-2.2-.6-.6-1.6-.8-2.8-.8-1.2 0-2.2.2-2.8.5-.6.3-1 .8-1 1.4 0 .7.4 1.2 1.1 1.7.7.4 1.8.8 3.2 1.1l4 .9c5.6 1.3 8.4 4.2 8.4 8.7 0 3.7-1.2 6.4-3.7 8.2-2.4 1.8-5.8 2.6-10.1 2.6-2.4 0-4.6-.4-6.6-1.1-2-.7-3.6-1.8-4.8-3.3-1.2-1.5-1.8-3.3-1.8-5.5v-.5-.5h8.8v.5c0 .9.3 1.7 1 2.3.6.6 1.7.9 3.2.9 1.7 0 2.8-.2 3.4-.5.6-.3.9-.8.9-1.4 0-.7-.4-1.3-1.3-1.7-.8-.4-2.2-.8-4-1.2-2.3-.5-4.2-1-5.7-1.6-1.5-.6-2.8-1.6-4-2.9-1.1-1.3-1.7-3.2-1.7-5.5 0-2.1.6-3.9 1.7-5.4 1.2-1.5 2.7-2.6 4.7-3.4 2-.8 4.2-1.1 6.7-1.1 3.8-.1 6.8.7 9.2 2.3zm23 4.7h-3.7v17.7h3.7v6.7h-16.9v-6.7h3.7V7.1h-3.7V.5h16.9v6.6zm24.5.8h-12.3V13h11.4v7h-11.4v11.6h-9.3V.5H160l-.9 7.4z"/></svg>