<svg xmlns="http://www.w3.org/2000/svg" viewBox="0 0 24 24" width="16" height="16"><path fill="#858585" d="M19.973 3.983A11.131 11.131 0 0 0 12.047.698C5.873.698.844 5.721.844 11.895a11.128 11.128 0 0 0 1.496 5.6L.75 23.3l5.941-1.56a11.23 11.23 0 0 0 5.353 1.368h.003c6.175 0 11.2-5.024 11.203-11.206 0-2.991-1.164-5.803-3.277-7.919zm-7.926 17.231h-.003c-1.67 0-3.31-.448-4.739-1.296l-.341-.203-3.527.922.941-3.435-.22-.352a9.275 9.275 0 0 1-1.426-4.956c0-5.129 4.179-9.305 9.316-9.305 2.486 0 4.824.972 6.582 2.729a9.25 9.25 0 0 1 2.725 6.585c.001 5.136-4.176 9.311-9.308 9.311zm5.058-6.979c-.275-.14-1.654-.817-1.91-.911-.255-.096-.443-.14-.628.142-.188.282-.724.91-.888 1.098-.16.185-.325.207-.604.068-.281-.139-1.183-.437-2.251-1.392-.832-.739-1.396-1.659-1.556-1.937-.166-.283-.019-.432.121-.571.129-.125.281-.327.421-.492.139-.161.187-.277.28-.464.093-.187.044-.351-.025-.491-.068-.139-.629-1.518-.863-2.078-.229-.544-.46-.468-.631-.48-.161-.007-.349-.007-.534-.007s-.491.07-.747.351c-.256.279-.977.957-.977 2.334 0 1.376 1.002 2.71 1.142 2.898.138.183 1.974 3.009 4.783 4.221.665.29 1.186.462 1.593.59.671.211 1.282.185 1.766.113.537-.08 1.654-.678 1.89-1.332.229-.653.229-1.214.16-1.33-.071-.117-.258-.189-.542-.33z"></path></svg>